ffmpeg started on 2025-06-27 at 11:59:49
Report written to "D:\Convert\FFMetrics\reports\psnr_report-6.txt"
Log level: 32
Command line:
ffmpeg -hide_banner -nostdin -i "G:\\\xc0\xed\xe8\xec\xe5\\[\xd2\xee\xef]\\\xca\xe0\xed\xe0\xeb \xc0\\NC\\[OCE] A-Channel The Animation NCED [BDrip 1280x720 x264 Vorbis]_HEVC.mkv" -i "G:\\\xc0\xed\xe8\xec\xe5\\[\xd2\xee\xef]\\\xca\xe0\xed\xe0\xeb \xc0\\NC\\[OCE] A-Channel The Animation NCED [BDrip 1280x720 x264 Vorbis].mkv" -lavfi "[0:v]settb=AVTB,setpts=PTS-STARTPTS,format=pix_fmts=yuv420p10,fps=24000/1001,scale=1280:720:flags=bicubic[main];[1:v]settb=AVTB,setpts=PTS-STARTPTS,format=pix_fmts=yuv420p10,fps=24000/1001,scale=1280:720:flags=bicubic[ref];[main][ref]psnr=eof_action=endall:stats_file='D\\:/Convert/FFMetrics/logs/psnr_logfile-6.txt'" -f null -
Input #0, matroska,webm, from 'G:\Аниме\[Топ]\Канал А\NC\[OCE] A-Channel The Animation NCED [BDrip 1280x720 x264 Vorbis]_HEVC.mkv':
  Metadata:
    ENCODER         : Lavf61.7.100
  Duration: 00:01:32.03, start: -0.019000, bitrate: 867 kb/s
  Stream #0:0: Video: hevc (Main 10), yuv420p10le(tv, bt709, progressive), 1280x720 [SAR 1:1 DAR 16:9], 23.98 fps, 23.98 tbr, 1k tbn (default)
      Metadata:
        ENCODER         : Lavc61.19.100 libx265
        BPS             : 674367
        DURATION        : 00:01:32.008708333
        NUMBER_OF_FRAMES: 2206
        NUMBER_OF_BYTES : 7755903
        _STATISTICS_WRITING_APP: mkvpropedit v66.0.0 ('Josie') 64-bit
        _STATISTICS_WRITING_DATE_UTC: 2025-06-27 08:18:58
        _STATISTICS_TAGS: BPS DURATION NUMBER_OF_FRAMES NUMBER_OF_BYTES
  Stream #0:1(jpn): Audio: aac (LC), 48000 Hz, stereo, fltp (default)
      Metadata:
        ENCODER         : Lavc61.19.100 aac
        BPS             : 189450
        DURATION        : 00:01:32.031000000
        NUMBER_OF_FRAMES: 4315
        NUMBER_OF_BYTES : 2179410
        _STATISTICS_WRITING_APP: mkvpropedit v66.0.0 ('Josie') 64-bit
        _STATISTICS_WRITING_DATE_UTC: 2025-06-27 08:18:58
        _STATISTICS_TAGS: BPS DURATION NUMBER_OF_FRAMES NUMBER_OF_BYTES
Input #1, matroska,webm, from 'G:\Аниме\[Топ]\Канал А\NC\[OCE] A-Channel The Animation NCED [BDrip 1280x720 x264 Vorbis].mkv':
  Metadata:
    encoder         : libebml v0.7.7 + libmatroska v0.8.1
    creation_time   : 2011-12-03T15:02:19.000000Z
  Duration: 00:01:32.01, start: 0.000000, bitrate: 3705 kb/s
  Stream #1:0: Video: h264 (High 10), yuv420p10le(progressive), 1280x720 [SAR 1:1 DAR 16:9], 23.98 fps, 23.98 tbr, 1k tbn (default)
  Stream #1:1(jpn): Audio: vorbis, 48000 Hz, stereo, fltp (default)
Stream mapping:
  Stream #0:0 (hevc) -> settb:default
  Stream #1:0 (h264) -> settb:default
  psnr:default -> Stream #0:0 (wrapped_avframe)
  Stream #0:1 -> #0:1 (aac (native) -> pcm_s16le (native))
Output #0, null, to 'pipe:':
  Metadata:
    encoder         : Lavf61.7.100
  Stream #0:0: Video: wrapped_avframe, yuv420p10le(tv, bt709, progressive), 1280x720 [SAR 1:1 DAR 16:9], q=2-31, 200 kb/s, 23.98 fps, 23.98 tbn
      Metadata:
        encoder         : Lavc61.19.100 wrapped_avframe
  Stream #0:1(jpn): Audio: pcm_s16le, 48000 Hz, stereo, s16, 1536 kb/s (default)
      Metadata:
        _STATISTICS_TAGS: BPS DURATION NUMBER_OF_FRAMES NUMBER_OF_BYTES
        BPS             : 189450
        DURATION        : 00:01:32.031000000
        NUMBER_OF_FRAMES: 4315
        NUMBER_OF_BYTES : 2179410
        _STATISTICS_WRITING_APP: mkvpropedit v66.0.0 ('Josie') 64-bit
        _STATISTICS_WRITING_DATE_UTC: 2025-06-27 08:18:58
        encoder         : Lavc61.19.100 pcm_s16le
frame=   35 fps=0.0 q=-0.0 size=N/A time=00:00:01.45 bitrate=N/A speed=2.89x    frame=   89 fps= 86 q=-0.0 size=N/A time=00:00:03.71 bitrate=N/A speed=3.59x    frame=  137 fps= 89 q=-0.0 size=N/A time=00:00:05.71 bitrate=N/A speed= 3.7x    frame=  184 fps= 90 q=-0.0 size=N/A time=00:00:07.67 bitrate=N/A speed=3.73x    frame=  232 fps= 90 q=-0.0 size=N/A time=00:00:09.67 bitrate=N/A speed=3.77x    frame=  282 fps= 91 q=-0.0 size=N/A time=00:00:11.76 bitrate=N/A speed=3.81x    frame=  322 fps= 89 q=-0.0 size=N/A time=00:00:13.43 bitrate=N/A speed=3.73x    frame=  375 fps= 91 q=-0.0 size=N/A time=00:00:15.64 bitrate=N/A speed=3.79x    frame=  429 fps= 92 q=-0.0 size=N/A time=00:00:17.89 bitrate=N/A speed=3.84x    frame=  477 fps= 92 q=-0.0 size=N/A time=00:00:19.89 bitrate=N/A speed=3.85x    frame=  521 fps= 92 q=-0.0 size=N/A time=00:00:21.73 bitrate=N/A speed=3.83x    frame=  575 fps= 93 q=-0.0 size=N/A time=00:00:23.98 bitrate=N/A speed=3.87x    frame=  623 fps= 93 q=-0.0 size=N/A time=00:00:25.98 bitrate=N/A speed=3.87x    frame=  673 fps= 93 q=-0.0 size=N/A time=00:00:28.06 bitrate=N/A speed=3.88x    frame=  718 fps= 93 q=-0.0 size=N/A time=00:00:29.94 bitrate=N/A speed=3.87x    frame=  771 fps= 93 q=-0.0 size=N/A time=00:00:32.15 bitrate=N/A speed=3.89x    frame=  815 fps= 93 q=-0.0 size=N/A time=00:00:33.99 bitrate=N/A speed=3.88x    frame=  872 fps= 94 q=-0.0 size=N/A time=00:00:36.36 bitrate=N/A speed=3.91x    frame=  906 fps= 92 q=-0.0 size=N/A time=00:00:37.78 bitrate=N/A speed=3.85x    frame=  973 fps= 94 q=-0.0 size=N/A time=00:00:40.58 bitrate=N/A speed=3.93x    frame= 1023 fps= 94 q=-0.0 size=N/A time=00:00:42.66 bitrate=N/A speed=3.94x    frame= 1073 fps= 95 q=-0.0 size=N/A time=00:00:44.75 bitrate=N/A speed=3.94x    frame= 1125 fps= 95 q=-0.0 size=N/A time=00:00:46.92 bitrate=N/A speed=3.95x    frame= 1164 fps= 94 q=-0.0 size=N/A time=00:00:48.54 bitrate=N/A speed=3.92x    frame= 1227 fps= 95 q=-0.0 size=N/A time=00:00:51.17 bitrate=N/A speed=3.97x    frame= 1269 fps= 95 q=-0.0 size=N/A time=00:00:52.92 bitrate=N/A speed=3.94x    frame= 1323 fps= 95 q=-0.0 size=N/A time=00:00:55.18 bitrate=N/A speed=3.96x    frame= 1377 fps= 95 q=-0.0 size=N/A time=00:00:57.43 bitrate=N/A speed=3.98x    frame= 1429 fps= 96 q=-0.0 size=N/A time=00:00:59.60 bitrate=N/A speed=3.98x    frame= 1480 fps= 96 q=-0.0 size=N/A time=00:01:01.72 bitrate=N/A speed=3.99x    frame= 1530 fps= 96 q=-0.0 size=N/A time=00:01:03.81 bitrate=N/A speed=3.99x    frame= 1577 fps= 95 q=-0.0 size=N/A time=00:01:05.77 bitrate=N/A speed=3.98x    frame= 1631 fps= 96 q=-0.0 size=N/A time=00:01:08.02 bitrate=N/A speed=   4x    frame= 1682 fps= 96 q=-0.0 size=N/A time=00:01:10.15 bitrate=N/A speed=   4x    frame= 1728 fps= 96 q=-0.0 size=N/A time=00:01:12.07 bitrate=N/A speed=3.99x    frame= 1780 fps= 96 q=-0.0 size=N/A time=00:01:14.24 bitrate=N/A speed=   4x    frame= 1835 fps= 96 q=-0.0 size=N/A time=00:01:16.53 bitrate=N/A speed=4.01x    frame= 1884 fps= 96 q=-0.0 size=N/A time=00:01:18.57 bitrate=N/A speed=4.01x    frame= 1927 fps= 96 q=-0.0 size=N/A time=00:01:20.37 bitrate=N/A speed=   4x    frame= 1984 fps= 96 q=-0.0 size=N/A time=00:01:22.74 bitrate=N/A speed=4.01x    frame= 2036 fps= 96 q=-0.0 size=N/A time=00:01:24.91 bitrate=N/A speed=4.01x    frame= 2085 fps= 96 q=-0.0 size=N/A time=00:01:26.96 bitrate=N/A speed=4.01x    frame= 2137 fps= 96 q=-0.0 size=N/A time=00:01:29.13 bitrate=N/A speed=4.02x    frame= 2188 fps= 96 q=-0.0 size=N/A time=00:01:31.25 bitrate=N/A speed=4.02x    [Parsed_psnr_10 @ 00000286cbd99f80] PSNR y:46.609318 u:50.669011 v:50.505455 average:47.578042 min:41.675491 max:inf
[out#0/null @ 00000286bf88d300] video:948KiB audio:17260KiB subtitle:0KiB other streams:0KiB global headers:0KiB muxing overhead: unknown
frame= 2206 fps= 96 q=-0.0 Lsize=N/A time=00:01:32.00 bitrate=N/A speed=4.02x    
